<?xml version="1.0" encoding="utf-8"?>
<!-- Generator: Adobe Illustrator 26.3.1, SVG Export Plug-In . SVG Version: 6.00 Build 0)  -->
<svg version="1.1" id="Layer_1" xmlns="http://www.w3.org/2000/svg" xmlns:xlink="http://www.w3.org/1999/xlink" x="0px" y="0px"
	 viewBox="0 0 467.6 251.6" style="enable-background:new 0 0 467.6 251.6;" xml:space="preserve">
<style type="text/css">
	.st0{fill:none;stroke:#231F20;stroke-width:5;stroke-linejoin:bevel;}
</style>
<polyline class="st0" points="466.9,125.8 375.5,34.4 288.1,185.8 250.6,175.7 250.6,1 375.5,34.4 "/>
<polyline class="st0" points="380.4,175.7 325.5,120.9 250.6,100.8 175.7,120.9 120.9,175.7 100.8,250.6 125.8,250.6 1,250.6 
	34.4,125.8 125.8,34.4 250.6,1 125.8,34.4 213.2,185.8 185.8,213.2 34.4,125.8 1,250.6 175.7,250.6 185.8,213.2 213.2,185.8 
	250.6,175.7 288.1,185.8 315.5,213.2 "/>
<line class="st0" x1="315.5" y1="213.2" x2="380.4" y2="175.7"/>
<line class="st0" x1="380.4" y1="175.7" x2="466.9" y2="125.8"/>
</svg>
