<svg id="Layer_1" data-name="Layer 1" xmlns="http://www.w3.org/2000/svg" viewBox="0 0 473.68 252.3"><defs><style>.cls-1{fill:none;stroke:#231f20;stroke-linejoin:round;stroke-width:31px;}</style></defs><polyline class="cls-1" points="347.53 236.8 369.61 236.8 351.88 170.39 303.2 121.8 236.8 103.98 170.39 121.8 121.8 170.39 103.98 236.8 126.15 236.8 15.5 236.8 45.11 126.15 126.15 45.11 236.8 15.5 126.15 45.11 203.64 179.34 179.34 203.64 45.11 126.15 15.5 236.8 170.39 236.8 179.34 203.64 203.64 179.34 236.8 170.39 270.05 179.34 294.34 203.64 303.2 236.8 458.18 236.8 428.57 126.15 347.53 45.11 270.05 179.34 236.8 170.39 236.8 15.5 347.53 45.11"/><line class="cls-1" x1="294.34" y1="203.64" x2="351.88" y2="170.39"/><line class="cls-1" x1="351.88" y1="170.39" x2="428.57" y2="126.15"/></svg>