<svg id="Layer_1" data-name="Layer 1" xmlns="http://www.w3.org/2000/svg" viewBox="0 0 16 8.25"><defs><style>.cls-1{fill:none;stroke:#231f20;stroke-linejoin:round;stroke-width:0.5px;}</style></defs><polyline class="cls-1" points="11.88 8 12.65 8 12.03 5.67 10.32 3.97 8 3.35 5.67 3.97 3.97 5.67 3.35 8 4.12 8 0.25 8 1.29 4.12 4.12 1.29 8 0.25 4.12 1.29 6.84 5.99 5.99 6.84 1.29 4.12 0.25 8 5.67 8 5.99 6.84 6.84 5.99 8 5.67 9.16 5.99 10.01 6.84 10.32 8 15.75 8 14.71 4.12 11.88 1.29 9.16 5.99 8 5.67 8 0.25 11.88 1.29"/><line class="cls-1" x1="10.01" y1="6.84" x2="12.03" y2="5.67"/><line class="cls-1" x1="12.03" y1="5.67" x2="14.71" y2="4.12"/></svg>