<svg id="Layer_1" data-name="Layer 1" xmlns="http://www.w3.org/2000/svg" viewBox="0 0 31.92 16.46"><defs><style>.cls-1{fill:none;stroke:#231f20;stroke-linejoin:round;}</style></defs><polyline class="cls-1" points="23.69 15.96 25.23 15.96 23.99 11.32 20.59 7.92 15.96 6.68 11.32 7.92 7.92 11.32 6.68 15.96 8.23 15.96 0.5 15.96 2.57 8.23 8.23 2.57 15.96 0.5 8.23 2.57 13.64 11.94 11.94 13.64 2.57 8.23 0.5 15.96 11.32 15.96 11.94 13.64 13.64 11.94 15.96 11.32 18.28 11.94 19.97 13.64 20.59 15.96 31.42 15.96 29.35 8.23 23.69 2.57 18.28 11.94 15.96 11.32 15.96 0.5 23.69 2.57"/><line class="cls-1" x1="19.97" y1="13.64" x2="23.99" y2="11.32"/><line class="cls-1" x1="23.99" y1="11.32" x2="29.35" y2="8.23"/></svg>